<svg xmlns="http://www.w3.org/2000/svg" width="11159" height="3000" fill="none" viewBox="0 0 11159 3000"><rect width="11158.7" height="3000" fill="url(#paint0)"/><path fill="#fff" d="M1732.03 1000L2309.38 2000H1154.69L1732.03 1000Z"/><path fill="#fff" d="M2763.68 1225.18L2904.31 1667.23H2909.7L3050.61 1225.18H3186.98L2986.41 1807H2827.89L2627.03 1225.18H2763.68ZM3392.38 1815.52C3347.49 1815.52 3308.86 1806.43 3276.47 1788.25C3244.27 1769.88 3219.46 1743.93 3202.04 1710.41C3184.61 1676.7 3175.9 1636.83 3175.9 1590.81C3175.9 1545.92 3184.61 1506.53 3202.04 1472.62C3219.46 1438.72 3243.99 1412.3 3275.62 1393.36C3307.43 1374.42 3344.75 1364.95 3387.55 1364.95C3416.34 1364.95 3443.14 1369.59 3467.95 1378.88C3492.95 1387.97 3514.73 1401.7 3533.29 1420.07C3552.04 1438.44 3566.62 1461.55 3577.04 1489.39C3587.45 1517.04 3592.66 1549.42 3592.66 1586.55V1619.78H3224.2V1544.78H3478.74C3478.74 1527.36 3474.95 1511.92 3467.38 1498.48C3459.8 1485.03 3449.29 1474.52 3435.84 1466.94C3422.59 1459.18 3407.15 1455.3 3389.54 1455.3C3371.17 1455.3 3354.88 1459.56 3340.67 1468.08C3326.66 1476.41 3315.67 1487.68 3307.72 1501.89C3299.76 1515.9 3295.69 1531.53 3295.5 1548.76V1620.07C3295.5 1641.66 3299.48 1660.31 3307.43 1676.03C3315.58 1691.75 3327.04 1703.88 3341.81 1712.4C3356.58 1720.92 3374.1 1725.18 3394.37 1725.18C3407.81 1725.18 3420.12 1723.29 3431.3 1719.5C3442.47 1715.71 3452.04 1710.03 3459.99 1702.45C3467.95 1694.88 3474.01 1685.6 3478.17 1674.61L3590.11 1682C3584.42 1708.89 3572.78 1732.38 3555.16 1752.45C3537.74 1772.34 3515.2 1787.87 3487.55 1799.05C3460.09 1810.03 3428.36 1815.52 3392.38 1815.52ZM3659.64 1807V1370.64H3776.97V1446.77H3781.51C3789.47 1419.69 3802.82 1399.23 3821.57 1385.41C3840.32 1371.39 3861.91 1364.39 3886.34 1364.39C3892.4 1364.39 3898.94 1364.77 3905.95 1365.52C3912.95 1366.28 3919.11 1367.32 3924.41 1368.65V1476.03C3918.73 1474.33 3910.87 1472.81 3900.83 1471.49C3890.79 1470.16 3881.61 1469.5 3873.28 1469.5C3855.47 1469.5 3839.56 1473.38 3825.55 1481.15C3811.72 1488.72 3800.74 1499.33 3792.59 1512.97C3784.64 1526.6 3780.66 1542.32 3780.66 1560.12V1807H3659.64ZM4151.83 1815.52C4107.13 1815.52 4068.69 1806.05 4036.49 1787.11C4004.48 1767.98 3979.86 1741.47 3962.62 1707.57C3945.58 1673.67 3937.06 1634.65 3937.06 1590.52C3937.06 1545.83 3945.67 1506.62 3962.91 1472.91C3980.33 1439.01 4005.05 1412.59 4037.06 1393.65C4069.06 1374.52 4107.13 1364.95 4151.26 1364.95C4189.33 1364.95 4222.66 1371.87 4251.26 1385.69C4279.86 1399.52 4302.49 1418.93 4319.16 1443.93C4335.83 1468.93 4345.01 1498.29 4346.72 1532H4232.51C4229.29 1510.22 4220.77 1492.7 4206.94 1479.44C4193.31 1466 4175.41 1459.27 4153.25 1459.27C4134.5 1459.27 4118.12 1464.39 4104.1 1474.61C4090.28 1484.65 4079.48 1499.33 4071.72 1518.65C4063.95 1537.97 4060.07 1561.36 4060.07 1588.82C4060.07 1616.66 4063.86 1640.33 4071.43 1659.84C4079.2 1679.35 4090.09 1694.22 4104.1 1704.44C4118.12 1714.67 4134.5 1719.78 4153.25 1719.78C4167.08 1719.78 4179.48 1716.94 4190.47 1711.26C4201.64 1705.58 4210.83 1697.34 4218.02 1686.55C4225.41 1675.56 4230.24 1662.4 4232.51 1647.06H4346.72C4344.82 1680.39 4335.73 1709.75 4319.44 1735.12C4303.34 1760.31 4281.09 1780.01 4252.68 1794.22C4224.27 1808.42 4190.66 1815.52 4151.83 1815.52ZM4611.07 1815.52C4566.18 1815.52 4527.54 1806.43 4495.16 1788.25C4462.96 1769.88 4438.15 1743.93 4420.72 1710.41C4403.3 1676.7 4394.59 1636.83 4394.59 1590.81C4394.59 1545.92 4403.3 1506.53 4420.72 1472.62C4438.15 1438.72 4462.68 1412.3 4494.3 1393.36C4526.12 1374.42 4563.43 1364.95 4606.24 1364.95C4635.02 1364.95 4661.82 1369.59 4686.63 1378.88C4711.63 1387.97 4733.41 1401.7 4751.97 1420.07C4770.72 1438.44 4785.31 1461.55 4795.72 1489.39C4806.14 1517.04 4811.35 1549.42 4811.35 1586.55V1619.78H4442.88V1544.78H4697.43C4697.43 1527.36 4693.64 1511.92 4686.07 1498.48C4678.49 1485.03 4667.98 1474.52 4654.53 1466.94C4641.27 1459.18 4625.84 1455.3 4608.22 1455.3C4589.85 1455.3 4573.57 1459.56 4559.36 1468.08C4545.35 1476.41 4534.36 1487.68 4526.41 1501.89C4518.45 1515.9 4514.38 1531.53 4514.19 1548.76V1620.07C4514.19 1641.66 4518.17 1660.31 4526.12 1676.03C4534.27 1691.75 4545.72 1703.88 4560.5 1712.4C4575.27 1720.92 4592.79 1725.18 4613.05 1725.18C4626.5 1725.18 4638.81 1723.29 4649.99 1719.5C4661.16 1715.71 4670.72 1710.03 4678.68 1702.45C4686.63 1694.88 4692.69 1685.6 4696.86 1674.61L4808.79 1682C4803.11 1708.89 4791.46 1732.38 4773.85 1752.45C4756.43 1772.34 4733.89 1787.87 4706.24 1799.05C4678.77 1810.03 4647.05 1815.52 4611.07 1815.52ZM4999.35 1225.18V1807H4878.33V1225.18H4999.35ZM5575.35 1392.51C5573.08 1369.59 5563.32 1351.79 5546.09 1339.1C5528.85 1326.41 5505.46 1320.07 5475.92 1320.07C5455.84 1320.07 5438.89 1322.91 5425.07 1328.59C5411.24 1334.08 5400.63 1341.75 5393.25 1351.6C5386.05 1361.45 5382.45 1372.62 5382.45 1385.12C5382.07 1395.54 5384.25 1404.63 5388.99 1412.4C5393.91 1420.16 5400.63 1426.89 5409.16 1432.57C5417.68 1438.06 5427.53 1442.89 5438.7 1447.06C5449.88 1451.03 5461.81 1454.44 5474.5 1457.28L5526.77 1469.78C5552.15 1475.47 5575.44 1483.04 5596.66 1492.51C5617.87 1501.98 5636.24 1513.63 5651.77 1527.45C5667.3 1541.28 5679.33 1557.57 5687.85 1576.32C5696.56 1595.07 5701.01 1616.56 5701.2 1640.81C5701.01 1676.41 5691.92 1707.28 5673.93 1733.42C5656.13 1759.37 5630.37 1779.54 5596.66 1793.93C5563.13 1808.14 5522.7 1815.24 5475.35 1815.24C5428.38 1815.24 5387.47 1808.04 5352.62 1793.65C5317.96 1779.25 5290.88 1757.95 5271.37 1729.73C5252.05 1701.32 5241.92 1666.19 5240.97 1624.33H5360.01C5361.33 1643.84 5366.92 1660.12 5376.77 1673.19C5386.81 1686.07 5400.16 1695.83 5416.83 1702.45C5433.68 1708.89 5452.72 1712.11 5473.93 1712.11C5494.76 1712.11 5512.85 1709.08 5528.19 1703.02C5543.72 1696.96 5555.75 1688.53 5564.27 1677.74C5572.79 1666.94 5577.05 1654.54 5577.05 1640.52C5577.05 1627.45 5573.17 1616.47 5565.41 1607.57C5557.83 1598.67 5546.66 1591.09 5531.88 1584.84C5517.3 1578.59 5499.4 1572.91 5478.19 1567.8L5414.84 1551.89C5365.79 1539.95 5327.05 1521.3 5298.64 1495.92C5270.24 1470.54 5256.13 1436.36 5256.32 1393.36C5256.13 1358.14 5265.5 1327.36 5284.44 1301.03C5303.57 1274.71 5329.8 1254.16 5363.13 1239.39C5396.47 1224.61 5434.35 1217.23 5476.77 1217.23C5519.95 1217.23 5557.64 1224.61 5589.84 1239.39C5622.22 1254.16 5647.41 1274.71 5665.41 1301.03C5683.4 1327.36 5692.68 1357.85 5693.25 1392.51H5575.35ZM6049.5 1621.2V1370.64H6170.52V1807H6054.33V1727.74H6049.78C6039.94 1753.31 6023.55 1773.86 6000.64 1789.39C5977.91 1804.92 5950.16 1812.68 5917.4 1812.68C5888.23 1812.68 5862.57 1806.05 5840.41 1792.8C5818.25 1779.54 5800.92 1760.69 5788.42 1736.26C5776.11 1711.83 5769.86 1682.57 5769.67 1648.48V1370.64H5890.69V1626.89C5890.88 1652.64 5897.8 1673 5911.43 1687.97C5925.07 1702.93 5943.34 1710.41 5966.26 1710.41C5980.84 1710.41 5994.48 1707.09 6007.17 1700.47C6019.86 1693.65 6030.09 1683.61 6037.85 1670.35C6045.81 1657.09 6049.69 1640.71 6049.5 1621.2ZM6257.6 1807V1225.18H6378.62V1443.93H6382.32C6387.62 1432.19 6395.29 1420.26 6405.33 1408.14C6415.55 1395.83 6428.81 1385.6 6445.1 1377.45C6461.58 1369.12 6482.03 1364.95 6506.46 1364.95C6538.28 1364.95 6567.64 1373.29 6594.53 1389.95C6621.43 1406.43 6642.92 1431.34 6659.02 1464.67C6675.12 1497.81 6683.17 1539.39 6683.17 1589.39C6683.17 1638.06 6675.31 1679.16 6659.59 1712.68C6644.06 1746.02 6622.85 1771.3 6595.95 1788.53C6569.25 1805.58 6539.32 1814.1 6506.18 1814.1C6482.69 1814.1 6462.71 1810.22 6446.24 1802.45C6429.95 1794.69 6416.6 1784.94 6406.18 1773.19C6395.76 1761.26 6387.81 1749.23 6382.32 1737.11H6376.92V1807H6257.6ZM6376.07 1588.82C6376.07 1614.77 6379.66 1637.4 6386.86 1656.72C6394.06 1676.03 6404.47 1691.09 6418.11 1701.89C6431.75 1712.49 6448.32 1717.8 6467.83 1717.8C6487.52 1717.8 6504.19 1712.4 6517.83 1701.6C6531.46 1690.62 6541.79 1675.47 6548.79 1656.15C6555.99 1636.64 6559.59 1614.2 6559.59 1588.82C6559.59 1563.63 6556.08 1541.47 6549.08 1522.34C6542.07 1503.21 6531.75 1488.25 6518.11 1477.45C6504.47 1466.66 6487.71 1461.26 6467.83 1461.26C6448.13 1461.26 6431.46 1466.47 6417.83 1476.89C6404.38 1487.3 6394.06 1502.08 6386.86 1521.2C6379.66 1540.33 6376.07 1562.87 6376.07 1588.82ZM6751.92 1807V1370.64H6867.26V1447.62H6872.38C6881.47 1422.06 6896.62 1401.89 6917.83 1387.11C6939.04 1372.34 6964.42 1364.95 6993.97 1364.95C7023.89 1364.95 7049.36 1372.44 7070.39 1387.4C7091.41 1402.17 7105.42 1422.25 7112.43 1447.62H7116.98C7125.88 1422.62 7141.98 1402.64 7165.27 1387.68C7188.76 1372.53 7216.5 1364.95 7248.51 1364.95C7289.23 1364.95 7322.28 1377.93 7347.66 1403.88C7373.23 1429.63 7386.01 1466.19 7386.01 1513.53V1807H7265.27V1537.4C7265.27 1513.16 7258.83 1494.97 7245.95 1482.85C7233.08 1470.73 7216.98 1464.67 7197.66 1464.67C7175.69 1464.67 7158.55 1471.68 7146.24 1485.69C7133.93 1499.52 7127.77 1517.8 7127.77 1540.52V1807H7010.44V1534.84C7010.44 1513.44 7004.29 1496.39 6991.98 1483.7C6979.86 1471.02 6963.85 1464.67 6943.97 1464.67C6930.52 1464.67 6918.4 1468.08 6907.6 1474.9C6897 1481.53 6888.57 1490.9 6882.32 1503.02C6876.07 1514.95 6872.94 1528.97 6872.94 1545.07V1807H6751.92ZM7666.77 1815.52C7622.64 1815.52 7584.48 1806.15 7552.28 1787.4C7520.27 1768.46 7495.55 1742.13 7478.13 1708.42C7460.71 1674.52 7451.99 1635.22 7451.99 1590.52C7451.99 1545.45 7460.71 1506.05 7478.13 1472.34C7495.55 1438.44 7520.27 1412.11 7552.28 1393.36C7584.48 1374.42 7622.64 1364.95 7666.77 1364.95C7710.9 1364.95 7748.96 1374.42 7780.97 1393.36C7813.17 1412.11 7837.98 1438.44 7855.4 1472.34C7872.83 1506.05 7881.54 1545.45 7881.54 1590.52C7881.54 1635.22 7872.83 1674.52 7855.4 1708.42C7837.98 1742.13 7813.17 1768.46 7780.97 1787.4C7748.96 1806.15 7710.9 1815.52 7666.77 1815.52ZM7667.34 1721.77C7687.41 1721.77 7704.17 1716.09 7717.62 1704.73C7731.07 1693.17 7741.2 1677.45 7748.02 1657.57C7755.02 1637.68 7758.53 1615.05 7758.53 1589.67C7758.53 1564.29 7755.02 1541.66 7748.02 1521.77C7741.2 1501.89 7731.07 1486.17 7717.62 1474.61C7704.17 1463.06 7687.41 1457.28 7667.34 1457.28C7647.07 1457.28 7630.02 1463.06 7616.2 1474.61C7602.56 1486.17 7592.24 1501.89 7585.23 1521.77C7578.41 1541.66 7575.01 1564.29 7575.01 1589.67C7575.01 1615.05 7578.41 1637.68 7585.23 1657.57C7592.24 1677.45 7602.56 1693.17 7616.2 1704.73C7630.02 1716.09 7647.07 1721.77 7667.34 1721.77ZM8109.03 1814.1C8075.88 1814.1 8045.87 1805.58 8018.97 1788.53C7992.27 1771.3 7971.05 1746.02 7955.34 1712.68C7939.8 1679.16 7932.04 1638.06 7932.04 1589.39C7932.04 1539.39 7940.09 1497.81 7956.19 1464.67C7972.29 1431.34 7993.69 1406.43 8020.39 1389.95C8047.29 1373.29 8076.74 1364.95 8108.74 1364.95C8133.18 1364.95 8153.54 1369.12 8169.82 1377.45C8186.3 1385.6 8199.56 1395.83 8209.6 1408.14C8219.82 1420.26 8227.59 1432.19 8232.89 1443.93H8236.59V1225.18H8357.32V1807H8238.01V1737.11H8232.89C8227.21 1749.23 8219.16 1761.26 8208.74 1773.19C8198.52 1784.94 8185.16 1794.69 8168.69 1802.45C8152.4 1810.22 8132.51 1814.1 8109.03 1814.1ZM8147.38 1717.8C8166.89 1717.8 8183.37 1712.49 8196.81 1701.89C8210.45 1691.09 8220.87 1676.03 8228.06 1656.72C8235.45 1637.4 8239.14 1614.77 8239.14 1588.82C8239.14 1562.87 8235.54 1540.33 8228.35 1521.2C8221.15 1502.08 8210.73 1487.3 8197.1 1476.89C8183.46 1466.47 8166.89 1461.26 8147.38 1461.26C8127.49 1461.26 8110.73 1466.66 8097.1 1477.45C8083.46 1488.25 8073.14 1503.21 8066.13 1522.34C8059.12 1541.47 8055.62 1563.63 8055.62 1588.82C8055.62 1614.2 8059.12 1636.64 8066.13 1656.15C8073.33 1675.47 8083.65 1690.62 8097.1 1701.6C8110.73 1712.4 8127.49 1717.8 8147.38 1717.8ZM8724.66 1621.2V1370.64H8845.68V1807H8729.49V1727.74H8724.94C8715.09 1753.31 8698.71 1773.86 8675.79 1789.39C8653.07 1804.92 8625.32 1812.68 8592.55 1812.68C8563.39 1812.68 8537.72 1806.05 8515.57 1792.8C8493.41 1779.54 8476.08 1760.69 8463.58 1736.26C8451.27 1711.83 8445.02 1682.57 8444.83 1648.48V1370.64H8565.85V1626.89C8566.04 1652.64 8572.95 1673 8586.59 1687.97C8600.22 1702.93 8618.5 1710.41 8641.42 1710.41C8656 1710.41 8669.64 1707.09 8682.33 1700.47C8695.02 1693.65 8705.24 1683.61 8713.01 1670.35C8720.96 1657.09 8724.85 1640.71 8724.66 1621.2ZM9051.51 1225.18V1807H8930.48V1225.18H9051.51ZM9335.32 1815.52C9290.43 1815.52 9251.79 1806.43 9219.41 1788.25C9187.21 1769.88 9162.4 1743.93 9144.97 1710.41C9127.55 1676.7 9118.84 1636.83 9118.84 1590.81C9118.84 1545.92 9127.55 1506.53 9144.97 1472.62C9162.4 1438.72 9186.93 1412.3 9218.55 1393.36C9250.37 1374.42 9287.68 1364.95 9330.49 1364.95C9359.27 1364.95 9386.07 1369.59 9410.88 1378.88C9435.88 1387.97 9457.66 1401.7 9476.22 1420.07C9494.97 1438.44 9509.56 1461.55 9519.97 1489.39C9530.39 1517.04 9535.6 1549.42 9535.6 1586.55V1619.78H9167.13V1544.78H9421.68C9421.68 1527.36 9417.89 1511.92 9410.32 1498.48C9402.74 1485.03 9392.23 1474.52 9378.78 1466.94C9365.52 1459.18 9350.09 1455.3 9332.47 1455.3C9314.1 1455.3 9297.82 1459.56 9283.61 1468.08C9269.6 1476.41 9258.61 1487.68 9250.66 1501.89C9242.7 1515.9 9238.63 1531.53 9238.44 1548.76V1620.07C9238.44 1641.66 9242.42 1660.31 9250.37 1676.03C9258.52 1691.75 9269.97 1703.88 9284.75 1712.4C9299.52 1720.92 9317.04 1725.18 9337.3 1725.18C9350.75 1725.18 9363.06 1723.29 9374.24 1719.5C9385.41 1715.71 9394.97 1710.03 9402.93 1702.45C9410.88 1694.88 9416.94 1685.6 9421.11 1674.61L9533.04 1682C9527.36 1708.89 9515.71 1732.38 9498.1 1752.45C9480.68 1772.34 9458.14 1787.87 9430.49 1799.05C9403.02 1810.03 9371.3 1815.52 9335.32 1815.52ZM9965.64 1495.07L9854.85 1501.89C9852.96 1492.42 9848.88 1483.89 9842.63 1476.32C9836.38 1468.55 9828.14 1462.4 9817.92 1457.85C9807.88 1453.12 9795.85 1450.75 9781.84 1450.75C9763.09 1450.75 9747.27 1454.73 9734.39 1462.68C9721.52 1470.45 9715.08 1480.86 9715.08 1493.93C9715.08 1504.35 9719.24 1513.16 9727.58 1520.35C9735.91 1527.55 9750.21 1533.33 9770.47 1537.68L9849.45 1553.59C9891.88 1562.3 9923.5 1576.32 9944.34 1595.64C9965.17 1614.95 9975.59 1640.33 9975.59 1671.77C9975.59 1700.37 9967.16 1725.47 9950.3 1747.06C9933.64 1768.65 9910.72 1785.5 9881.55 1797.62C9852.58 1809.56 9819.15 1815.52 9781.27 1815.52C9723.5 1815.52 9677.48 1803.5 9643.2 1779.44C9609.11 1755.2 9589.13 1722.25 9583.26 1680.58L9702.29 1674.33C9705.89 1691.94 9714.6 1705.39 9728.43 1714.67C9742.25 1723.76 9759.96 1728.31 9781.55 1728.31C9802.77 1728.31 9819.81 1724.23 9832.69 1716.09C9845.76 1707.76 9852.39 1697.06 9852.58 1683.99C9852.39 1673 9847.75 1664.01 9838.66 1657C9829.57 1649.8 9815.55 1644.31 9796.61 1640.52L9721.04 1625.47C9678.43 1616.94 9646.71 1602.17 9625.87 1581.15C9605.23 1560.12 9594.91 1533.33 9594.91 1500.75C9594.91 1472.72 9602.48 1448.57 9617.63 1428.31C9632.97 1408.04 9654.47 1392.42 9682.12 1381.43C9709.96 1370.45 9742.54 1364.95 9779.85 1364.95C9834.96 1364.95 9878.33 1376.6 9909.96 1399.9C9941.78 1423.19 9960.34 1454.92 9965.64 1495.07Z"/><defs><linearGradient id="paint0" x1="587.5" x2="10950.9" y1="1176.5" y2="1191.36" gradientUnits="userSpaceOnUse"><stop stop-color="#FF0080"/><stop offset="1" stop-color="#F5A623"/></linearGradient></defs></svg>